<mxfile host="app.diagrams.net" modified="2022-11-17T16:56:53.762Z" agent="5.0 (Windows NT 10.0; Win64; x64) AppleWebKit/537.36 (KHTML, like Gecko) Chrome/107.0.0.0 Safari/537.36" etag="UkspLuTvpFOAFi78FIS0" version="20.5.3" type="github">
  <diagram id="R2lEEEUBdFMjLlhIrx00" name="Page-1">
    <mxGraphModel dx="782" dy="1844" grid="1" gridSize="10" guides="1" tooltips="1" connect="1" arrows="1" fold="1" page="1" pageScale="1" pageWidth="850" pageHeight="1100" math="0" shadow="0" extFonts="Permanent Marker^https://fonts.googleapis.com/css?family=Permanent+Marker">
      <root>
        <mxCell id="0" />
        <mxCell id="1" parent="0" />
        <mxCell id="wcKygk_WKPrEuLjn9pDS-1" value="Persona" style="whiteSpace=wrap;html=1;align=center;" vertex="1" parent="1">
          <mxGeometry x="280" y="-60" width="100" height="40" as="geometry" />
        </mxCell>
        <mxCell id="wcKygk_WKPrEuLjn9pDS-2" value="Administrador" style="whiteSpace=wrap;html=1;align=center;" vertex="1" parent="1">
          <mxGeometry x="40" y="200" width="100" height="40" as="geometry" />
        </mxCell>
        <mxCell id="wcKygk_WKPrEuLjn9pDS-3" value="Vendedor" style="whiteSpace=wrap;html=1;align=center;" vertex="1" parent="1">
          <mxGeometry x="280" y="180" width="100" height="40" as="geometry" />
        </mxCell>
        <mxCell id="wcKygk_WKPrEuLjn9pDS-5" value="Producto" style="whiteSpace=wrap;html=1;align=center;" vertex="1" parent="1">
          <mxGeometry x="340" y="560" width="100" height="40" as="geometry" />
        </mxCell>
        <mxCell id="wcKygk_WKPrEuLjn9pDS-69" style="edgeStyle=orthogonalEdgeStyle;rounded=0;orthogonalLoop=1;jettySize=auto;html=1;endArrow=ERoneToMany;endFill=0;" edge="1" parent="1" source="wcKygk_WKPrEuLjn9pDS-7" target="wcKygk_WKPrEuLjn9pDS-25">
          <mxGeometry relative="1" as="geometry" />
        </mxCell>
        <mxCell id="wcKygk_WKPrEuLjn9pDS-7" value="Factura" style="whiteSpace=wrap;html=1;align=center;" vertex="1" parent="1">
          <mxGeometry x="640" y="320" width="100" height="40" as="geometry" />
        </mxCell>
        <mxCell id="wcKygk_WKPrEuLjn9pDS-19" style="edgeStyle=orthogonalEdgeStyle;rounded=0;orthogonalLoop=1;jettySize=auto;html=1;entryX=0;entryY=0.5;entryDx=0;entryDy=0;endArrow=ERoneToMany;endFill=0;exitX=0.5;exitY=1;exitDx=0;exitDy=0;" edge="1" parent="1" source="wcKygk_WKPrEuLjn9pDS-26" target="wcKygk_WKPrEuLjn9pDS-5">
          <mxGeometry relative="1" as="geometry">
            <mxPoint x="140" y="335" as="sourcePoint" />
            <Array as="points">
              <mxPoint x="110" y="400" />
              <mxPoint x="230" y="400" />
              <mxPoint x="230" y="580" />
            </Array>
          </mxGeometry>
        </mxCell>
        <mxCell id="wcKygk_WKPrEuLjn9pDS-22" style="edgeStyle=orthogonalEdgeStyle;rounded=0;orthogonalLoop=1;jettySize=auto;html=1;entryX=0.75;entryY=1;entryDx=0;entryDy=0;endArrow=ERmandOne;endFill=0;" edge="1" parent="1" source="wcKygk_WKPrEuLjn9pDS-26" target="wcKygk_WKPrEuLjn9pDS-2">
          <mxGeometry relative="1" as="geometry">
            <mxPoint x="110" y="310" as="sourcePoint" />
            <Array as="points">
              <mxPoint x="110" y="270" />
              <mxPoint x="115" y="270" />
            </Array>
          </mxGeometry>
        </mxCell>
        <mxCell id="wcKygk_WKPrEuLjn9pDS-28" style="edgeStyle=orthogonalEdgeStyle;rounded=0;orthogonalLoop=1;jettySize=auto;html=1;entryX=0.5;entryY=1;entryDx=0;entryDy=0;endArrow=ERmany;endFill=0;" edge="1" parent="1" source="wcKygk_WKPrEuLjn9pDS-23" target="wcKygk_WKPrEuLjn9pDS-42">
          <mxGeometry relative="1" as="geometry">
            <mxPoint x="510" y="240" as="targetPoint" />
          </mxGeometry>
        </mxCell>
        <mxCell id="wcKygk_WKPrEuLjn9pDS-56" style="edgeStyle=orthogonalEdgeStyle;rounded=0;orthogonalLoop=1;jettySize=auto;html=1;endArrow=ERmandOne;endFill=0;exitX=0;exitY=0.5;exitDx=0;exitDy=0;" edge="1" parent="1" source="wcKygk_WKPrEuLjn9pDS-23" target="wcKygk_WKPrEuLjn9pDS-3">
          <mxGeometry relative="1" as="geometry">
            <Array as="points">
              <mxPoint x="310" y="360" />
              <mxPoint x="310" y="270" />
              <mxPoint x="330" y="270" />
            </Array>
          </mxGeometry>
        </mxCell>
        <mxCell id="wcKygk_WKPrEuLjn9pDS-70" style="edgeStyle=orthogonalEdgeStyle;rounded=0;orthogonalLoop=1;jettySize=auto;html=1;entryX=0.5;entryY=0;entryDx=0;entryDy=0;endArrow=ERoneToMany;endFill=0;" edge="1" parent="1" source="wcKygk_WKPrEuLjn9pDS-23" target="wcKygk_WKPrEuLjn9pDS-5">
          <mxGeometry relative="1" as="geometry">
            <Array as="points">
              <mxPoint x="450" y="520" />
              <mxPoint x="390" y="520" />
            </Array>
          </mxGeometry>
        </mxCell>
        <mxCell id="wcKygk_WKPrEuLjn9pDS-23" value="solicita" style="shape=rhombus;perimeter=rhombusPerimeter;whiteSpace=wrap;html=1;align=center;" vertex="1" parent="1">
          <mxGeometry x="390" y="330" width="120" height="60" as="geometry" />
        </mxCell>
        <mxCell id="wcKygk_WKPrEuLjn9pDS-64" style="edgeStyle=orthogonalEdgeStyle;rounded=0;orthogonalLoop=1;jettySize=auto;html=1;endArrow=ERoneToMany;endFill=0;entryX=1;entryY=0.5;entryDx=0;entryDy=0;" edge="1" parent="1" source="wcKygk_WKPrEuLjn9pDS-24" target="wcKygk_WKPrEuLjn9pDS-5">
          <mxGeometry relative="1" as="geometry">
            <mxPoint x="610" y="580" as="targetPoint" />
            <Array as="points">
              <mxPoint x="690" y="580" />
            </Array>
          </mxGeometry>
        </mxCell>
        <mxCell id="wcKygk_WKPrEuLjn9pDS-65" style="edgeStyle=orthogonalEdgeStyle;rounded=0;orthogonalLoop=1;jettySize=auto;html=1;endArrow=ERoneToMany;endFill=0;" edge="1" parent="1" source="wcKygk_WKPrEuLjn9pDS-24" target="wcKygk_WKPrEuLjn9pDS-7">
          <mxGeometry relative="1" as="geometry" />
        </mxCell>
        <mxCell id="wcKygk_WKPrEuLjn9pDS-24" value="Genera" style="shape=rhombus;perimeter=rhombusPerimeter;whiteSpace=wrap;html=1;align=center;" vertex="1" parent="1">
          <mxGeometry x="630" y="480" width="120" height="60" as="geometry" />
        </mxCell>
        <mxCell id="wcKygk_WKPrEuLjn9pDS-35" style="edgeStyle=orthogonalEdgeStyle;rounded=0;orthogonalLoop=1;jettySize=auto;html=1;endArrow=cross;endFill=0;startArrow=none;" edge="1" parent="1" source="wcKygk_WKPrEuLjn9pDS-42">
          <mxGeometry relative="1" as="geometry">
            <mxPoint x="540" y="200" as="targetPoint" />
            <Array as="points">
              <mxPoint x="520" y="140" />
              <mxPoint x="520" y="200" />
            </Array>
          </mxGeometry>
        </mxCell>
        <mxCell id="wcKygk_WKPrEuLjn9pDS-36" style="edgeStyle=orthogonalEdgeStyle;rounded=0;orthogonalLoop=1;jettySize=auto;html=1;endArrow=cross;endFill=0;" edge="1" parent="1" source="wcKygk_WKPrEuLjn9pDS-25" target="wcKygk_WKPrEuLjn9pDS-2">
          <mxGeometry relative="1" as="geometry">
            <Array as="points">
              <mxPoint x="700" y="-150" />
              <mxPoint x="90" y="-150" />
            </Array>
          </mxGeometry>
        </mxCell>
        <mxCell id="wcKygk_WKPrEuLjn9pDS-26" value="CRUD" style="shape=rhombus;perimeter=rhombusPerimeter;whiteSpace=wrap;html=1;align=center;" vertex="1" parent="1">
          <mxGeometry x="50" y="310" width="120" height="60" as="geometry" />
        </mxCell>
        <mxCell id="wcKygk_WKPrEuLjn9pDS-39" style="edgeStyle=orthogonalEdgeStyle;rounded=0;orthogonalLoop=1;jettySize=auto;html=1;entryX=0.91;entryY=-0.075;entryDx=0;entryDy=0;entryPerimeter=0;endArrow=ERmandOne;endFill=0;" edge="1" parent="1" source="wcKygk_WKPrEuLjn9pDS-37" target="wcKygk_WKPrEuLjn9pDS-2">
          <mxGeometry relative="1" as="geometry" />
        </mxCell>
        <mxCell id="wcKygk_WKPrEuLjn9pDS-51" style="edgeStyle=orthogonalEdgeStyle;rounded=0;orthogonalLoop=1;jettySize=auto;html=1;endArrow=ERmandOne;endFill=0;" edge="1" parent="1" source="wcKygk_WKPrEuLjn9pDS-37" target="wcKygk_WKPrEuLjn9pDS-42">
          <mxGeometry relative="1" as="geometry" />
        </mxCell>
        <mxCell id="wcKygk_WKPrEuLjn9pDS-53" style="edgeStyle=orthogonalEdgeStyle;rounded=0;orthogonalLoop=1;jettySize=auto;html=1;endArrow=ERmandOne;endFill=0;" edge="1" parent="1" source="wcKygk_WKPrEuLjn9pDS-37" target="wcKygk_WKPrEuLjn9pDS-3">
          <mxGeometry relative="1" as="geometry" />
        </mxCell>
        <mxCell id="wcKygk_WKPrEuLjn9pDS-54" style="edgeStyle=orthogonalEdgeStyle;rounded=0;orthogonalLoop=1;jettySize=auto;html=1;endArrow=ERmandOne;endFill=0;" edge="1" parent="1" source="wcKygk_WKPrEuLjn9pDS-37" target="wcKygk_WKPrEuLjn9pDS-1">
          <mxGeometry relative="1" as="geometry" />
        </mxCell>
        <mxCell id="wcKygk_WKPrEuLjn9pDS-37" value="Puede ser" style="shape=rhombus;perimeter=rhombusPerimeter;whiteSpace=wrap;html=1;align=center;" vertex="1" parent="1">
          <mxGeometry x="270" y="30" width="120" height="60" as="geometry" />
        </mxCell>
        <mxCell id="wcKygk_WKPrEuLjn9pDS-42" value="Cliente" style="whiteSpace=wrap;html=1;align=center;" vertex="1" parent="1">
          <mxGeometry x="470" y="180" width="100" height="40" as="geometry" />
        </mxCell>
        <mxCell id="wcKygk_WKPrEuLjn9pDS-57" value="" style="edgeStyle=orthogonalEdgeStyle;rounded=0;orthogonalLoop=1;jettySize=auto;html=1;endArrow=none;endFill=0;" edge="1" parent="1" source="wcKygk_WKPrEuLjn9pDS-25" target="wcKygk_WKPrEuLjn9pDS-42">
          <mxGeometry relative="1" as="geometry">
            <mxPoint x="700" y="195" as="sourcePoint" />
            <mxPoint x="540" y="200" as="targetPoint" />
            <Array as="points">
              <mxPoint x="640" y="200" />
              <mxPoint x="640" y="200" />
            </Array>
          </mxGeometry>
        </mxCell>
        <mxCell id="wcKygk_WKPrEuLjn9pDS-25" value="es enviada" style="shape=rhombus;perimeter=rhombusPerimeter;whiteSpace=wrap;html=1;align=center;" vertex="1" parent="1">
          <mxGeometry x="630" y="170" width="120" height="60" as="geometry" />
        </mxCell>
        <mxCell id="wcKygk_WKPrEuLjn9pDS-85" style="edgeStyle=orthogonalEdgeStyle;rounded=0;orthogonalLoop=1;jettySize=auto;html=1;endArrow=none;endFill=0;" edge="1" parent="1" source="wcKygk_WKPrEuLjn9pDS-71" target="wcKygk_WKPrEuLjn9pDS-1">
          <mxGeometry relative="1" as="geometry" />
        </mxCell>
        <mxCell id="wcKygk_WKPrEuLjn9pDS-71" value="&lt;span style=&quot;border-bottom: 1px dotted&quot;&gt;Nombre&lt;/span&gt;" style="ellipse;whiteSpace=wrap;html=1;align=center;rotation=-45;" vertex="1" parent="1">
          <mxGeometry x="170" y="-90" width="60" height="20" as="geometry" />
        </mxCell>
        <mxCell id="wcKygk_WKPrEuLjn9pDS-91" style="edgeStyle=orthogonalEdgeStyle;rounded=0;orthogonalLoop=1;jettySize=auto;html=1;endArrow=none;endFill=0;" edge="1" parent="1" source="wcKygk_WKPrEuLjn9pDS-73" target="wcKygk_WKPrEuLjn9pDS-1">
          <mxGeometry relative="1" as="geometry" />
        </mxCell>
        <mxCell id="wcKygk_WKPrEuLjn9pDS-73" value="&lt;span style=&quot;border-bottom: 1px dotted&quot;&gt;Email&lt;/span&gt;" style="ellipse;whiteSpace=wrap;html=1;align=center;rotation=-45;" vertex="1" parent="1">
          <mxGeometry x="250" y="-130" width="60" height="20" as="geometry" />
        </mxCell>
        <mxCell id="wcKygk_WKPrEuLjn9pDS-74" value="&lt;span style=&quot;border-bottom: 1px dotted&quot;&gt;Dirección&lt;br&gt;&lt;/span&gt;" style="ellipse;whiteSpace=wrap;html=1;align=center;rotation=-45;" vertex="1" parent="1">
          <mxGeometry x="720" y="260" width="70" height="20" as="geometry" />
        </mxCell>
        <mxCell id="wcKygk_WKPrEuLjn9pDS-88" style="edgeStyle=orthogonalEdgeStyle;rounded=0;orthogonalLoop=1;jettySize=auto;html=1;entryX=1;entryY=1;entryDx=0;entryDy=0;endArrow=none;endFill=0;" edge="1" parent="1" source="wcKygk_WKPrEuLjn9pDS-75" target="wcKygk_WKPrEuLjn9pDS-1">
          <mxGeometry relative="1" as="geometry">
            <Array as="points">
              <mxPoint x="397" y="-100" />
              <mxPoint x="397" y="-56" />
              <mxPoint x="400" y="-56" />
              <mxPoint x="400" y="-50" />
              <mxPoint x="380" y="-50" />
            </Array>
          </mxGeometry>
        </mxCell>
        <mxCell id="wcKygk_WKPrEuLjn9pDS-75" value="&lt;span style=&quot;border-bottom: 1px dotted&quot;&gt;Teléfono&lt;br&gt;&lt;/span&gt;" style="ellipse;whiteSpace=wrap;html=1;align=center;rotation=-55;" vertex="1" parent="1">
          <mxGeometry x="430" y="-120" width="70" height="20" as="geometry" />
        </mxCell>
        <mxCell id="wcKygk_WKPrEuLjn9pDS-76" value="&lt;span style=&quot;border-bottom: 1px dotted&quot;&gt;Nombre&lt;/span&gt;" style="ellipse;whiteSpace=wrap;html=1;align=center;rotation=-45;" vertex="1" parent="1">
          <mxGeometry x="250" y="640" width="60" height="20" as="geometry" />
        </mxCell>
        <mxCell id="wcKygk_WKPrEuLjn9pDS-77" value="&lt;span style=&quot;border-bottom: 1px dotted&quot;&gt;Precio&lt;/span&gt;" style="ellipse;whiteSpace=wrap;html=1;align=center;rotation=-45;" vertex="1" parent="1">
          <mxGeometry x="300" y="640" width="60" height="20" as="geometry" />
        </mxCell>
        <mxCell id="wcKygk_WKPrEuLjn9pDS-78" value="&lt;span style=&quot;border-bottom: 1px dotted&quot;&gt;Ingredientes&lt;br&gt;&lt;/span&gt;" style="ellipse;whiteSpace=wrap;html=1;align=center;rotation=-45;" vertex="1" parent="1">
          <mxGeometry x="350" y="640" width="70" height="20" as="geometry" />
        </mxCell>
        <mxCell id="wcKygk_WKPrEuLjn9pDS-79" value="&lt;span style=&quot;border-bottom: 1px dotted&quot;&gt;Caracteristicas&lt;br&gt;&lt;br&gt;&lt;/span&gt;" style="ellipse;whiteSpace=wrap;html=1;align=center;rotation=-55;" vertex="1" parent="1">
          <mxGeometry x="389.1" y="645.67" width="90" height="31.81" as="geometry" />
        </mxCell>
      </root>
    </mxGraphModel>
  </diagram>
</mxfile>
